# Blender 4.0.1
# www.blender.org
o Body
v 18.274090 10.074799 -5.876549
v 18.274090 24.694323 -5.876549
v 18.274090 10.074799 5.876549
v 18.274090 24.694323 5.876549
v -18.274090 10.074799 -5.876549
v -18.274090 24.694323 -5.876549
v -18.274090 10.074799 5.876549
v -18.274090 24.694323 5.876549
v 15.144822 15.676226 -11.799451
v 15.144822 21.507280 -11.799451
v 15.144822 21.507280 11.799451
v 15.144822 15.676226 11.799451
v -15.144822 15.676226 11.799451
v -15.144822 21.507280 11.799451
v -15.144822 21.507280 -11.799451
v -15.144822 15.676226 -11.799451
v 26.234438 25.837070 -6.988611
v 26.234438 25.837070 6.988611
v -21.535673 25.837070 6.988611
v -21.535673 25.837070 -6.988611
v 19.394279 22.650028 12.820239
v -16.638237 22.650028 12.820239
v -16.638237 22.650028 -12.820239
v 19.394279 22.650028 -12.820239
v 27.655315 27.841413 -7.396066
v 27.655315 27.841413 7.396066
v -22.899918 27.841413 7.396066
v -22.899918 27.841413 -7.396066
v 20.506857 24.468557 14.118741
v -17.680393 24.468557 12.691237
v -17.680393 24.468557 -12.691237
v 20.506857 24.468557 -14.118741
v 27.753847 28.027790 -2.881201
v 27.309135 27.186615 -2.630278
v 27.309135 27.186615 2.630279
v 27.753847 28.027790 2.881201
v -22.850042 27.747074 0.958192
v -22.702147 27.467327 0.874743
v -22.702147 27.467327 -0.874743
v -22.850042 27.747074 -0.958192
v -14.690778 21.278423 16.972799
v -15.453332 23.096952 17.962357
v 10.781025 21.278423 16.972799
v -14.690778 21.278423 -16.972799
v 10.781025 21.278423 -16.972799
v 11.503545 23.096952 17.962357
v -15.453332 23.096952 -17.962357
v 11.503545 23.096952 -17.962357
v -16.621696 23.887880 14.746624
v 14.311410 23.887880 -16.558931
v -16.621696 23.887880 -14.746624
v 14.311410 23.887880 16.558931
v 25.671875 28.008810 8.003527
v -21.156807 28.008810 8.003527
v -21.156807 28.008810 -8.003527
v 25.671875 28.008810 -8.003527
v 19.325417 24.884577 13.812022
v -16.322025 24.884577 13.108078
v -16.322025 24.884577 -13.108078
v 19.325417 24.884577 -13.812022
v -15.258282 24.346701 14.326921
v -15.258282 24.346701 -14.326921
v 13.228493 24.346701 -16.087650
v 13.228493 24.346701 16.087650
v -17.450207 28.027790 2.356071
v -17.459846 27.841413 6.048053
v -22.405884 27.841413 6.048053
v -22.401005 27.747074 -1.798308
v -22.405884 27.841413 -6.048053
v -17.459846 27.841413 -6.048053
v -17.450207 28.027790 -2.356071
v -22.401005 27.747074 1.798308
v -17.750383 28.402409 2.703388
v -17.759438 28.227348 5.680861
v -22.063686 28.227348 5.680861
v -22.059105 28.138735 -2.318674
v -22.063686 28.227348 -5.680861
v -17.759438 28.227348 -5.680861
v -17.750383 28.402409 -2.703388
v -22.059105 28.138735 2.318674
v -17.966160 28.402409 2.842644
v -17.974310 28.227348 5.522369
v -21.848133 28.227348 5.522369
v -21.844009 28.149757 -2.496401
v -21.848133 28.229509 -5.522369
v -17.974310 28.229509 -5.522369
v -17.966160 28.387064 -2.842644
v -21.844009 28.138735 2.496401
v -18.619947 28.227348 5.522369
v -19.265585 28.227348 5.522369
v -19.911222 28.227348 5.522369
v -20.556860 28.227348 5.522369
v -21.202496 28.227348 5.522369
v -21.202496 28.229509 -5.522369
v -20.556858 28.229509 -5.522369
v -19.911221 28.229509 -5.522369
v -19.265583 28.229509 -5.522369
v -18.619946 28.229509 -5.522369
v -18.612469 28.358463 2.784937
v -19.258778 28.314518 2.727230
v -19.905087 28.270573 2.669522
v -20.551394 28.226627 2.611815
v -21.197701 28.182682 2.554108
v -18.612469 28.347513 -2.784937
v -19.258778 28.307962 -2.727230
v -19.905087 28.268412 -2.669523
v -20.551394 28.228861 -2.611816
v -21.197701 28.189308 -2.554109
v -17.953735 28.025837 2.842344
v -17.961885 27.850777 5.522069
v -21.190071 27.850777 5.522069
v -21.835709 27.850777 5.522069
v -21.831585 27.773186 -2.496701
v -21.835709 27.852938 -5.522669
v -18.607521 27.852938 -5.522669
v -17.961885 27.852938 -5.522669
v -17.953735 28.010492 -2.842944
v -21.831585 27.762163 2.496101
v -21.185276 27.806110 2.553808
v -21.185276 27.812737 -2.554409
v -18.607523 27.850777 5.522069
v -19.253160 27.850777 5.522069
v -19.898798 27.850777 5.522069
v -20.544436 27.850777 5.522069
v -21.190071 27.852938 -5.522669
v -20.544434 27.852938 -5.522669
v -19.898796 27.852938 -5.522669
v -19.253159 27.852938 -5.522669
v -18.600044 27.981892 2.784637
v -19.246353 27.937946 2.726929
v -19.892662 27.894001 2.669222
v -20.538969 27.850056 2.611515
v -18.600044 27.970942 -2.785237
v -19.246353 27.931391 -2.727530
v -19.892662 27.891840 -2.669823
v -20.538969 27.852289 -2.612116
v -18.601776 28.023619 -2.787912
v -17.955467 28.063169 -2.845619
v -17.963617 27.905615 -5.525343
v -18.609253 27.905615 -5.525343
v -18.609447 27.903433 5.525040
v -17.963810 27.903433 5.525040
v -17.955660 28.078493 2.845315
v -18.601969 28.034548 2.787607
v -21.837450 27.903509 5.520894
v -21.191813 27.903509 5.520894
v -21.187017 27.858843 2.552633
v -21.833326 27.814896 2.494925
v -21.191847 28.437243 5.521659
v -20.546211 27.903519 5.521659
v -20.540745 27.902798 2.611105
v -21.187052 28.392576 2.553398
v -20.546247 28.437243 5.522454
v -19.900610 27.903519 5.522454
v -19.894474 27.946743 2.669607
v -20.540781 28.436522 2.611900
v -19.900646 28.437229 5.523282
v -19.255009 27.903505 5.523282
v -19.248201 27.990675 2.728142
v -19.894510 28.480453 2.670435
v -19.255045 28.437201 5.524143
v -18.609407 27.903477 5.524143
v -18.601929 28.034592 2.786711
v -19.248238 28.524370 2.729004
v -21.833153 27.825926 -2.495644
v -21.186844 27.865477 -2.553351
v -21.191639 27.905678 -5.521611
v -21.837276 27.905678 -5.521611
v -21.186874 28.399210 -2.554039
v -20.540567 27.905039 -2.611747
v -20.546032 27.905687 -5.522299
v -21.191669 28.439411 -5.522299
v -20.540600 28.438761 -2.612463
v -19.894293 27.944588 -2.670170
v -19.900427 27.905685 -5.523015
v -20.546064 28.439409 -5.523015
v -19.894325 28.478300 -2.670915
v -19.248016 27.984127 -2.728622
v -19.254822 27.905674 -5.523761
v -19.900459 28.439398 -5.523761
v -19.248051 28.517828 -2.729398
v -18.601742 28.023655 -2.787105
v -18.609219 27.905651 -5.524536
v -19.254856 28.439375 -5.524536
vn 1.0000 -0.0000 -0.0000
vn 0.8842 -0.0000 0.4671
vn -1.0000 -0.0000 -0.0000
vn 0.2268 -0.9238 -0.3086
vn -0.0000 -1.0000 -0.0000
vn -0.4798 -0.8658 0.1419
vn -0.0000 -0.0000 1.0000
vn -0.0000 -0.0000 -1.0000
vn 0.8842 -0.0000 -0.4671
vn -0.0000 -0.7265 -0.6871
vn -0.8842 -0.0000 0.4671
vn -0.0000 -0.7265 0.6871
vn -0.4798 -0.8658 -0.1419
vn -0.8842 -0.0000 -0.4671
vn -0.8239 -0.5667 -0.0000
vn -0.0100 0.9471 -0.3208
vn -0.7645 -0.5099 0.3944
vn -0.3307 -0.9438 -0.0000
vn -0.0000 -0.6662 -0.7458
vn -0.0000 -0.6662 0.7458
vn 0.2268 -0.9238 0.3086
vn 0.1421 -0.9899 -0.0000
vn -0.3501 0.6041 -0.7159
vn -0.0014 0.9814 -0.1919
vn -0.2707 0.8436 -0.4637
vn 0.8086 -0.5884 -0.0000
vn -0.7645 -0.5099 -0.3944
vn 0.6633 -0.6240 0.4131
vn -0.8608 -0.4427 0.2512
vn 0.6633 -0.6240 -0.4131
vn -0.0000 1.0000 -0.0000
vn 0.0351 0.2771 -0.9602
vn 0.0056 1.0000 -0.0000
vn 0.0351 0.2771 0.9602
vn -0.0000 -0.4780 0.8784
vn -0.0000 -0.4780 -0.8784
vn -0.8608 -0.4427 -0.2512
vn 0.4115 -0.5615 0.7179
vn -0.0000 -0.9495 -0.3136
vn 0.4115 -0.5615 -0.7179
vn -0.0100 0.9471 0.3208
vn -0.0000 -0.9495 0.3136
vn -0.0427 0.7027 -0.7102
vn 0.1993 0.7657 -0.6116
vn -0.0042 0.8681 0.4964
vn -0.0042 0.8681 -0.4964
vn -0.0108 0.9599 0.2800
vn -0.0108 0.9599 -0.2800
vn -0.3501 0.6041 0.7159
vn 0.1332 0.8285 0.5438
vn -0.2707 0.8436 0.4637
vn -0.0000 0.9641 0.2657
vn 0.1993 0.7657 0.6116
vn -0.0427 0.7027 0.7102
vn 0.1332 0.8285 -0.5438
vn -0.0000 0.9641 -0.2657
vn -0.7490 0.6623 0.0168
vn 0.7843 0.6194 -0.0358
vn -0.0095 0.9998 0.0177
vn -0.0009 0.9990 0.0454
vn -0.0095 0.9998 -0.0177
vn -0.0014 0.9814 0.1919
vn -0.0009 0.9990 -0.0454
vn -0.0028 0.9981 0.0618
vn -0.0294 0.9992 0.0264
vn 0.7843 0.6194 0.0358
vn 0.0234 0.7488 0.6624
vn -0.7490 0.6623 -0.0168
vn -0.0000 0.6893 -0.7245
vn -0.0000 0.6893 0.7245
vn 0.0234 0.7488 -0.6624
vn 0.9995 0.0330 0.0004
vn -0.0000 0.0008 -1.0000
vn -0.0623 0.9980 -0.0135
vn 0.0012 0.9996 -0.0277
vn -0.0000 0.9999 -0.0136
vn -0.0643 0.9979 -0.0001
vn -0.0332 0.9977 -0.0586
vn -0.0888 -0.0021 -0.9960
vn -0.9994 -0.0330 0.0050
vn -0.0887 -0.0037 0.9961
vn -0.0000 -0.0008 1.0000
vn 0.9995 0.0330 -0.0005
vn -0.9994 -0.0330 -0.0052
vn -0.0328 0.9982 -0.0507
vn 0.0856 0.0533 0.9949
vn 0.9995 0.0326 -0.0050
vn -0.0000 -0.0507 -0.9987
vn -0.9995 -0.0326 0.0041
vn -0.0365 0.9977 0.0563
vn -0.0000 -0.0563 0.9984
vn 0.9993 0.0362 0.0054
vn 0.0848 0.0592 -0.9946
vn -0.9993 -0.0363 -0.0045
vn -0.0330 0.9992 -0.0223
vn -0.0000 0.0223 0.9998
vn 0.9995 0.0330 0.0011
vn 0.0902 -0.0192 -0.9957
vn -0.9995 -0.0330 -0.0004
vn 0.6211 0.7837 -0.0050
vn 0.0005 0.0013 1.0000
vn 0.9994 0.0337 0.0019
vn 0.0887 -0.0008 -0.9961
vn -1.0000 -0.0030 -0.0016
vn 0.6208 0.7840 0.0070
vn -0.0005 -0.0012 1.0000
vn 0.9994 0.0343 0.0027
vn 0.0895 0.0017 -0.9960
vn -1.0000 -0.0031 -0.0019
vn 0.6203 0.7841 0.0195
vn -0.0016 -0.0038 1.0000
vn 0.9994 0.0349 0.0035
vn 0.0904 0.0043 -0.9959
vn -1.0000 -0.0031 -0.0022
vn 0.6197 0.7841 0.0325
vn -0.0027 -0.0065 1.0000
vn 0.9994 0.0356 0.0044
vn 0.0913 0.0070 -0.9958
vn -1.0000 -0.0032 -0.0025
vn -0.0297 0.9994 0.0200
vn 0.0900 -0.0173 0.9958
vn 0.9996 0.0297 -0.0012
vn -0.0000 0.0201 -0.9998
vn -0.9996 -0.0297 0.0006
vn 0.6227 0.7824 0.0044
vn 0.0887 -0.0007 0.9961
vn 0.9995 0.0303 -0.0019
vn 0.0005 0.0012 -1.0000
vn -1.0000 -0.0027 0.0016
vn 0.6224 0.7827 -0.0064
vn 0.0895 0.0015 0.9960
vn 0.9995 0.0309 -0.0026
vn -0.0004 -0.0011 -1.0000
vn -1.0000 -0.0028 0.0019
vn 0.6220 0.7828 -0.0177
vn 0.0903 0.0039 0.9959
vn 0.9995 0.0315 -0.0033
vn -0.0014 -0.0034 -1.0000
vn -1.0000 -0.0028 0.0022
vn 0.6215 0.7828 -0.0294
vn 0.0911 0.0063 0.9958
vn 0.9995 0.0320 -0.0041
vn -0.0024 -0.0059 -1.0000
vn -1.0000 -0.0029 0.0025
vt 0.578564 0.282098
vt 0.578564 0.280402
vt 0.578670 0.280402
vt 0.578670 0.282098
vt 0.578776 0.282098
vt 0.578776 0.280402
vt 0.578882 0.280402
vt 0.578882 0.282098
vt 0.828670 0.249152
vt 0.578776 0.283793
vt 0.578882 0.283793
vt 0.828882 0.249152
vt 0.578988 0.280402
vt 0.578988 0.282098
vt 0.828776 0.249152
vt 0.823023 0.764777
vt 0.822917 0.764777
vt 0.822938 0.764777
vt 0.822959 0.764777
vt 0.822980 0.764777
vt 0.823001 0.764777
vt 0.823023 0.763082
vt 0.828988 0.249152
vt 0.828564 0.249152
vt 0.078882 0.796027
vt 0.928407 0.278707
vt 0.928407 0.280402
vt 0.822811 0.764777
vt 0.822705 0.764777
vt 0.822726 0.764777
vt 0.822747 0.764777
vt 0.822768 0.764777
vt 0.822789 0.764777
vt 0.822917 0.803840
vt 0.822917 0.802144
vt 0.928428 0.278707
vt 0.928428 0.280402
vt 0.928449 0.278707
vt 0.928449 0.280402
vt 0.928470 0.278707
vt 0.928470 0.280402
vt 0.823129 0.764777
vt 0.822917 0.763082
vt 0.078882 0.794332
vt 0.078564 0.796027
vt 0.078776 0.794332
vt 0.078776 0.796027
vt 0.078670 0.796027
vt 0.823023 0.802144
vt 0.823023 0.803840
vt 0.811304 0.841207
vt 0.811304 0.842902
vt 0.811198 0.842902
vt 0.811198 0.841207
vt 0.078776 0.795180
vt 0.078776 0.794897
vt 0.928470 0.278989
vt 0.928470 0.279272
vt 0.928470 0.279555
vt 0.928470 0.279837
vt 0.928470 0.280120
vt 0.811304 0.842620
vt 0.811304 0.842337
vt 0.811304 0.842055
vt 0.811304 0.841772
vt 0.811304 0.841489
vt 0.811198 0.841489
vt 0.811198 0.841772
vt 0.811198 0.842055
vt 0.811198 0.842337
vt 0.811198 0.842620
vt 0.928407 0.280120
vt 0.928407 0.279837
vt 0.928407 0.279555
vt 0.928407 0.279272
vt 0.928407 0.278989
vt 0.078776 0.794614
vt 0.078882 0.794614
vt 0.078776 0.795745
vt 0.078776 0.795462
vt 0.078882 0.795745
vt 0.078882 0.795462
vt 0.078882 0.795180
vt 0.078882 0.794897
vt 0.699955 0.302427
vt 0.699955 0.302144
vt 0.699976 0.302144
vt 0.699976 0.302427
vt 0.287845 0.786519
vt 0.287845 0.786802
vt 0.287866 0.786519
vt 0.287866 0.786802
vt 0.699870 0.302427
vt 0.699870 0.302144
vt 0.699891 0.302144
vt 0.699891 0.302427
vt 0.287760 0.786519
vt 0.287760 0.786802
vt 0.287782 0.786519
vt 0.287782 0.786802
vt 0.699870 0.303840
vt 0.699870 0.303557
vt 0.699891 0.303557
vt 0.699891 0.303840
vt 0.287760 0.787932
vt 0.287760 0.788215
vt 0.287782 0.787932
vt 0.287782 0.788215
vt 0.287760 0.787650
vt 0.287782 0.787650
vt 0.791667 0.319182
vt 0.791688 0.319182
vt 0.287760 0.787367
vt 0.287782 0.787367
vt 0.791667 0.318900
vt 0.791688 0.318900
vt 0.287760 0.787085
vt 0.287782 0.787085
vt 0.791667 0.318617
vt 0.791688 0.318617
vt 0.791667 0.318335
vt 0.791688 0.318335
vt 0.699955 0.303840
vt 0.699955 0.303557
vt 0.699976 0.303557
vt 0.699976 0.303840
vt 0.287845 0.787932
vt 0.287845 0.788215
vt 0.287866 0.787932
vt 0.287866 0.788215
vt 0.287845 0.787650
vt 0.287866 0.787650
vt 0.791751 0.319182
vt 0.791773 0.319182
vt 0.287845 0.787367
vt 0.287866 0.787367
vt 0.791751 0.318900
vt 0.791773 0.318900
vt 0.287845 0.787085
vt 0.287866 0.787084
vt 0.791751 0.318617
vt 0.791773 0.318617
vt 0.791751 0.318335
vt 0.791773 0.318334
s 0
f 1/1/1 2/2/1 4/3/1 3/4/1
f 3/4/2 4/3/2 11/3/2 12/4/2
f 7/5/3 8/6/3 6/7/3 5/8/3
f 11/9/4 4/9/4 18/9/4 21/9/4
f 3/10/5 7/5/5 5/8/5 1/11/5
f 15/12/6 6/12/6 20/12/6 23/12/6
f 12/4/7 11/3/7 14/6/7 13/5/7
f 16/8/8 15/7/8 10/13/8 9/14/8
f 2/2/9 1/1/9 9/1/9 10/2/9
f 1/11/10 5/8/10 16/8/10 9/11/10
f 8/6/11 7/5/11 13/5/11 14/6/11
f 7/5/12 3/10/12 12/10/12 13/5/12
f 8/15/13 14/15/13 22/15/13 19/15/13
f 5/8/14 6/7/14 15/7/14 16/8/14
f 20/16/15 19/17/15 27/17/15 37/18/15 38/19/15 39/20/15 40/21/15 28/16/15
f 51/16/16 50/22/16 48/22/16 47/16/16
f 19/17/17 22/17/17 30/17/17 27/17/17
f 6/12/18 8/15/18 19/15/18 20/12/18
f 10/23/19 15/12/19 23/12/19 24/23/19
f 14/15/20 11/9/20 21/9/20 22/15/20
f 2/24/21 10/24/21 24/24/21 17/24/21
f 4/9/22 2/24/22 17/24/22 18/9/22
f 31/25/23 28/25/23 55/25/23 59/25/23
f 36/26/24 37/27/24 72/27/24 65/26/24
f 51/25/25 31/25/25 59/25/25 62/25/25
f 18/28/26 17/29/26 25/29/26 33/30/26 34/31/26 35/32/26 36/33/26 26/28/26
f 23/16/27 20/16/27 28/16/27 31/16/27
f 21/28/28 18/28/28 26/28/28 29/28/28
f 30/17/29 22/17/29 41/17/29 42/17/29 49/17/29
f 17/29/30 24/29/30 32/29/30 25/29/30
f 27/34/31 26/35/31 66/35/31 67/34/31
f 37/27/32 36/26/32 35/36/32 38/37/32
f 38/37/33 35/36/33 34/38/33 39/39/33
f 39/39/34 34/38/34 33/40/34 40/41/34
f 41/17/35 43/28/35 46/28/35 42/17/35
f 45/42/36 44/16/36 47/16/36 48/42/36
f 23/16/37 31/16/37 51/16/37 47/16/37 44/16/37
f 21/28/38 29/28/38 52/28/38 46/28/38 43/28/38
f 22/17/39 21/28/39 43/28/39 41/17/39
f 32/29/40 24/29/40 45/29/40 48/29/40 50/29/40
f 52/43/41 49/17/41 42/17/41 46/43/41
f 24/42/42 23/16/42 44/16/42 45/42/42
f 50/44/43 51/25/43 62/25/43 63/44/43
f 25/45/44 32/45/44 60/45/44 56/45/44
f 53/46/45 54/47/45 58/47/45 57/46/45
f 55/25/46 56/44/46 60/44/46 59/25/46
f 57/46/47 58/47/47 61/47/47 64/46/47
f 59/25/48 60/44/48 63/44/48 62/25/48
f 27/47/49 30/47/49 58/47/49 54/47/49
f 52/48/50 29/48/50 57/48/50 64/48/50
f 30/47/51 49/47/51 61/47/51 58/47/51
f 28/25/52 25/44/52 56/44/52 55/25/52
f 29/48/53 26/48/53 53/48/53 57/48/53
f 49/47/54 52/46/54 64/46/54 61/47/54
f 32/45/55 50/45/55 63/45/55 60/45/55
f 26/46/56 27/47/56 54/47/56 53/46/56
f 69/16/57 68/21/57 76/21/57 77/16/57
f 71/30/58 70/29/58 78/29/58 79/30/58
f 28/16/59 40/21/59 68/21/59 69/16/59
f 26/28/60 36/33/60 65/33/60 66/28/60
f 37/18/61 27/17/61 67/17/61 72/18/61
f 40/41/62 33/40/62 71/40/62 68/41/62
f 33/30/63 25/29/63 70/29/63 71/30/63
f 25/49/31 28/50/31 69/50/31 70/49/31
f 74/28/64 73/33/64 81/33/64 82/28/64
f 77/16/65 76/21/65 84/21/65 85/16/65
f 66/28/66 65/33/66 73/33/66 74/28/66
f 68/41/67 71/40/67 79/40/67 76/41/67
f 72/18/68 67/17/68 75/17/68 80/18/68
f 70/51/69 69/52/69 77/52/69 78/51/69
f 67/53/70 66/54/70 74/54/70 75/53/70
f 65/26/71 72/27/71 80/27/71 73/26/71
f 88/18/72 83/17/72 112/17/72 118/18/72
f 91/55/73 90/56/73 122/56/73 123/55/73
f 76/41/74 79/40/74 87/40/74 104/57/74 105/58/74 106/59/74 107/60/74 108/61/74 84/41/74
f 80/18/75 75/17/75 83/17/75 88/18/75
f 78/51/76 77/52/76 85/52/76 94/62/76 95/63/76 96/64/76 97/65/76 98/66/76 86/51/76
f 75/53/31 74/54/31 82/54/31 89/67/31 90/68/31 91/69/31 92/70/31 93/71/31 83/53/31
f 73/26/77 80/27/77 88/27/77 103/72/77 102/73/77 101/74/77 100/75/77 99/76/77 81/26/77
f 79/30/78 78/29/78 86/29/78 87/30/78
f 104/57/79 87/40/79 117/40/79 133/57/79
f 87/30/80 86/29/80 116/29/80 117/30/80
f 90/56/73 89/77/73 121/77/73 122/56/73
f 102/73/81 103/72/81 119/72/81 132/73/81
f 86/44/82 98/78/82 115/78/82 116/44/82
f 89/77/73 82/46/73 110/46/73 121/77/73
f 101/74/81 102/73/81 132/73/81 131/74/81
f 85/16/83 84/21/83 113/21/83 114/16/83
f 100/75/81 101/74/81 131/74/81 130/75/81
f 83/47/73 93/79/73 111/79/73 112/47/73
f 105/58/79 104/57/79 133/57/79 134/58/79
f 92/80/73 91/55/73 123/55/73 124/80/73
f 103/72/81 88/27/81 118/27/81 119/72/81
f 106/59/79 105/58/79 134/58/79 135/59/79
f 93/79/73 92/80/73 124/80/73 111/79/73
f 84/41/79 108/61/79 120/61/79 113/41/79
f 107/60/79 106/59/79 135/59/79 136/60/79
f 94/81/82 85/25/82 114/25/82 125/81/82
f 108/61/79 107/60/79 136/60/79 120/61/79
f 95/82/82 94/81/82 125/81/82 126/82/82
f 96/83/82 95/82/82 126/82/82 127/83/82
f 97/84/82 96/83/82 127/83/82 128/84/82
f 98/78/82 97/84/82 128/84/82 115/78/82
f 81/26/81 99/76/81 129/76/81 109/26/81
f 82/28/84 81/33/84 109/33/84 110/28/84
f 99/76/81 100/75/81 130/75/81 129/76/81
f 137/85/85 138/86/85 139/87/85 140/88/85
f 117/89/86 138/89/86 137/90/86 133/90/86
f 116/91/87 139/91/87 138/89/87 117/89/87
f 115/92/88 140/92/88 139/91/88 116/91/88
f 133/90/89 137/90/89 140/92/89 115/92/89
f 141/93/90 142/94/90 143/95/90 144/96/90
f 110/97/91 142/97/91 141/98/91 121/98/91
f 109/99/92 143/99/92 142/97/92 110/97/92
f 129/100/93 144/100/93 143/99/93 109/99/93
f 121/98/94 141/98/94 144/100/94 129/100/94
f 145/101/95 146/102/95 147/103/95 148/104/95
f 111/105/96 146/105/96 145/106/96 112/106/96
f 119/107/97 147/107/97 146/105/97 111/105/97
f 118/108/98 148/108/98 147/107/98 119/107/98
f 112/106/99 145/106/99 148/108/99 118/108/99
f 149/105/100 150/109/100 151/110/100 152/107/100
f 124/109/101 150/109/101 149/105/101 111/105/101
f 132/110/102 151/110/102 150/109/102 124/109/102
f 119/107/103 152/107/103 151/110/103 132/110/103
f 111/111/104 149/111/104 152/112/104 119/112/104
f 153/109/105 154/113/105 155/114/105 156/110/105
f 123/113/106 154/113/106 153/109/106 124/109/106
f 131/114/107 155/114/107 154/113/107 123/113/107
f 132/110/108 156/110/108 155/114/108 131/114/108
f 124/115/109 153/115/109 156/116/109 132/116/109
f 157/113/110 158/117/110 159/118/110 160/114/110
f 122/117/111 158/117/111 157/113/111 123/113/111
f 130/118/112 159/118/112 158/117/112 122/117/112
f 131/114/113 160/114/113 159/118/113 130/118/113
f 123/119/114 157/119/114 160/120/114 131/120/114
f 161/117/115 162/98/115 163/100/115 164/118/115
f 121/98/116 162/98/116 161/117/116 122/117/116
f 129/100/117 163/100/117 162/98/117 121/98/117
f 130/118/118 164/118/118 163/100/118 129/100/118
f 122/121/119 161/121/119 164/122/119 130/122/119
f 165/123/120 166/124/120 167/125/120 168/126/120
f 120/127/121 166/127/121 165/128/121 113/128/121
f 125/129/122 167/129/122 166/127/122 120/127/122
f 114/130/123 168/130/123 167/129/123 125/129/123
f 113/128/124 165/128/124 168/130/124 114/130/124
f 169/127/125 170/131/125 171/132/125 172/129/125
f 136/131/126 170/131/126 169/127/126 120/127/126
f 126/132/127 171/132/127 170/131/127 136/131/127
f 125/129/128 172/129/128 171/132/128 126/132/128
f 120/133/129 169/133/129 172/134/129 125/134/129
f 173/131/130 174/135/130 175/136/130 176/132/130
f 135/135/131 174/135/131 173/131/131 136/131/131
f 127/136/132 175/136/132 174/135/132 135/135/132
f 126/132/133 176/132/133 175/136/133 127/136/133
f 136/137/134 173/137/134 176/138/134 126/138/134
f 177/135/135 178/139/135 179/140/135 180/136/135
f 134/139/136 178/139/136 177/135/136 135/135/136
f 128/140/137 179/140/137 178/139/137 134/139/137
f 127/136/138 180/136/138 179/140/138 128/140/138
f 135/141/139 177/141/139 180/142/139 127/142/139
f 181/139/140 182/90/140 183/92/140 184/140/140
f 133/90/141 182/90/141 181/139/141 134/139/141
f 115/92/142 183/92/142 182/90/142 133/90/142
f 128/140/143 184/140/143 183/92/143 115/92/143
f 134/143/144 181/143/144 184/144/144 128/144/144
