# Blender 4.0.1
# www.blender.org
o Cube
v -1.000000 2.003078 0.655779
v -1.000000 0.003078 1.000000
v -1.780657 2.003078 -1.115118
v -1.000000 0.003078 -1.000000
v 1.000000 2.003078 0.655779
v 1.000000 0.003078 1.000000
v 1.780657 2.003078 -1.115118
v 1.000000 0.003078 -1.000000
v -1.780657 8.604540 -3.336944
v 1.780657 8.604540 -3.336944
v -1.000000 8.604540 0.366654
v 1.000000 8.604540 0.366654
v -1.780657 16.045443 0.549618
v 1.780657 16.045443 0.549618
v -1.000000 16.045443 2.051837
v 1.000000 16.045443 2.051837
v -1.780657 2.282879 -2.400108
v 1.780657 2.282879 -2.400108
v -1.780657 8.884341 -5.178924
v 1.780657 8.884341 -5.178924
v -1.780657 16.325245 -1.294194
v 1.780657 16.325245 -1.294194
v 4.583017 2.003078 0.093450
v 4.583017 2.282879 -1.191541
v -4.583017 2.003078 0.093450
v -4.583017 8.604540 -2.128376
v 4.583017 8.604540 -2.128376
v -4.583017 16.045443 1.758186
v 4.583017 16.045443 1.758186
v -4.583017 2.282879 -1.191541
v -4.583017 8.884341 -3.970356
v 4.583017 8.884341 -3.970356
v -4.583017 16.325245 -0.085626
v 4.583017 16.325245 -0.085626
v 1.780657 8.912066 -5.848823
v -1.780657 8.912066 -5.848823
v -1.780657 2.310605 -3.070008
v -0.704323 2.282879 -2.400108
v 0.704323 2.282879 -2.400108
v 0.704323 8.884341 -5.178924
v -0.704323 8.884341 -5.178924
v 0.704323 16.325245 -1.294194
v -0.704323 16.325245 -1.294194
v 1.780657 2.310605 -3.070008
v -1.780657 16.352970 -1.964093
v 1.780657 16.352970 -1.964093
v -0.704323 8.912066 -5.848823
v -0.704323 16.352970 -1.964093
v 0.704323 16.352970 -1.964093
v 0.704323 8.912066 -5.848823
v -0.704323 2.310605 -3.070008
v 0.704323 2.310605 -3.070008
v 0.600000 2.003078 0.655779
v 0.200000 2.003078 -0.626786
v -0.200000 2.003078 -0.626786
v -0.600000 2.003078 0.655779
v 0.600000 8.604540 0.366654
v 0.200000 8.604540 -0.915911
v -0.200000 8.604540 -0.915911
v -0.600000 8.604540 0.366654
v 0.600000 16.045443 2.051837
v 0.200000 16.045443 0.769272
v -0.200000 16.045443 0.769272
v -0.600000 16.045443 2.051837
vn -0.0000 0.0438 0.9990
vn -0.0000 -0.0575 -0.9983
vn 0.9657 -0.1655 0.1999
vn -0.0000 -1.0000 -0.0000
vn -0.9657 -0.1655 0.1999
vn -0.0000 0.3940 0.9191
vn -0.0000 -0.2209 0.9753
vn 1.0000 -0.0000 -0.0000
vn 0.9603 0.0521 0.2739
vn -0.9603 0.0521 0.2739
vn -0.0000 1.0000 -0.0000
vn -0.9524 -0.1069 0.2856
vn 0.9524 -0.1069 0.2856
vn 0.3571 0.4323 -0.8280
vn -1.0000 -0.0000 -0.0000
vn -0.0000 0.9887 0.1500
vn -0.3571 -0.4325 0.8279
vn -0.0000 -0.3880 -0.9217
vn 0.0646 0.9866 0.1497
vn -0.3694 -0.3605 -0.8565
vn 0.3694 -0.3605 -0.8565
vn 0.3784 0.2953 0.8773
vn -0.0646 0.9866 0.1497
vn 0.0914 -0.9730 -0.2119
vn -0.0914 -0.9730 -0.2119
vn -0.3784 0.2953 0.8773
vn 0.3571 -0.4325 0.8279
vn -0.3571 0.4323 -0.8280
vn -0.0000 -0.9771 -0.2128
vn -0.0000 0.4628 -0.8865
vn -0.0000 0.9991 0.0414
vn -0.0000 -0.9991 -0.0414
vn 0.9525 -0.0673 0.2971
vn -0.9525 -0.0673 0.2971
vn 0.9546 0.0130 0.2977
vn -0.9546 0.0130 0.2977
vt 0.545314 0.293992
vt 0.545219 0.294047
vt 0.545186 0.288154
vt 0.545281 0.288099
vt 0.900873 0.316329
vt 0.900769 0.319263
vt 0.900769 0.305584
vt 0.900873 0.308647
vt 0.894816 0.302104
vt 0.894694 0.302804
vt 0.894695 0.295735
vt 0.894816 0.294411
vt 0.897752 0.309258
vt 0.897752 0.316980
vt 0.897632 0.316980
vt 0.897632 0.309258
vt 0.894816 0.294411
vt 0.894937 0.295735
vt 0.894938 0.302804
vt 0.900824 0.305584
vt 0.900802 0.303890
vt 0.900897 0.303835
vt 0.900992 0.303780
vt 0.901086 0.303725
vt 0.901181 0.303670
vt 0.901276 0.303615
vt 0.901297 0.305309
vt 0.545241 0.280796
vt 0.545336 0.280741
vt 0.320905 0.734263
vt 0.321553 0.727389
vt 0.321482 0.729700
vt 0.320834 0.736574
vt 0.539112 0.285892
vt 0.539111 0.292961
vt 0.538713 0.301508
vt 0.538714 0.287004
vt 0.539354 0.292961
vt 0.539354 0.285892
vt 0.539752 0.287004
vt 0.539752 0.301508
vt 0.538072 0.294355
vt 0.538072 0.295899
vt 0.538072 0.297444
vt 0.538072 0.298988
vt 0.538072 0.300532
vt 0.538072 0.302077
vt 0.537982 0.305091
vt 0.537982 0.291341
vt 0.540201 0.280522
vt 0.540202 0.286557
vt 0.538264 0.286557
vt 0.538265 0.280522
vt 0.061216 0.760374
vt 0.061153 0.752199
vt 0.061797 0.752199
vt 0.061860 0.760374
vt 0.320762 0.734263
vt 0.320762 0.717681
vt 0.320834 0.719992
vt 0.058129 0.744125
vt 0.058129 0.757875
vt 0.058017 0.757875
vt 0.058017 0.753719
vt 0.058017 0.748281
vt 0.058017 0.744125
vt 0.064816 0.750273
vt 0.064663 0.758427
vt 0.064056 0.758427
vt 0.064209 0.750273
vt 0.325461 0.745520
vt 0.325203 0.745425
vt 0.325281 0.741040
vt 0.325539 0.741135
vt 0.058090 0.733306
vt 0.058202 0.733306
vt 0.060628 0.765265
vt 0.060349 0.764334
vt 0.060349 0.753088
vt 0.060628 0.754020
vt 0.063474 0.739826
vt 0.063343 0.750273
vt 0.063226 0.745689
vt 0.063300 0.733306
vt 0.065085 0.739826
vt 0.064280 0.750273
vt 0.064454 0.743746
vt 0.065259 0.733306
vt 0.065217 0.750273
vt 0.065333 0.745689
vt 0.064105 0.743746
vt 0.061130 0.764719
vt 0.061774 0.764719
vt 0.064056 0.763282
vt 0.063723 0.764853
vt 0.063723 0.753331
vt 0.064056 0.751760
vt 0.058202 0.768694
vt 0.058090 0.768694
vt 0.058339 0.744125
vt 0.058260 0.744125
vt 0.058332 0.733306
vt 0.058411 0.733306
vt 0.058260 0.757875
vt 0.058339 0.757875
vt 0.058411 0.768694
vt 0.058332 0.768694
vt 0.064786 0.763622
vt 0.064179 0.763622
vt 0.063226 0.761794
vt 0.063226 0.750273
vt 0.061130 0.763445
vt 0.061130 0.752199
vt 0.320905 0.717681
vt 0.320834 0.719992
vt 0.058260 0.753719
vt 0.058260 0.748281
vt 0.072707 0.281851
vt 0.072629 0.273710
vt 0.072967 0.273834
vt 0.073045 0.281976
vt 0.072629 0.286236
vt 0.072967 0.286360
vt 0.317783 0.738094
vt 0.317783 0.742250
vt 0.317742 0.742250
vt 0.317742 0.738094
vt 0.321962 0.744810
vt 0.321703 0.744715
vt 0.321626 0.736574
vt 0.321884 0.736669
vt 0.325203 0.732899
vt 0.325461 0.732994
vt 0.321884 0.749194
vt 0.321626 0.749100
vt 0.317783 0.728500
vt 0.317783 0.732656
vt 0.317742 0.732656
vt 0.317742 0.728500
vt 0.320114 0.727389
vt 0.320186 0.729700
vt 0.318025 0.738094
vt 0.318025 0.742250
vt 0.317985 0.742250
vt 0.317985 0.738094
vt 0.322344 0.717681
vt 0.322344 0.734263
vt 0.322272 0.736574
vt 0.322272 0.719992
vt 0.322201 0.734263
vt 0.321624 0.729700
vt 0.322992 0.727389
vt 0.322920 0.729700
vt 0.322201 0.717681
vt 0.322272 0.719992
vt 0.318025 0.728500
vt 0.318025 0.732656
vt 0.317985 0.732656
vt 0.317985 0.728500
vt 0.545659 0.287880
vt 0.545565 0.287935
vt 0.545619 0.280576
vt 0.545714 0.280522
vt 0.799471 0.764497
vt 0.799376 0.764552
vt 0.799431 0.757194
vt 0.799526 0.757139
vt 0.813048 0.287989
vt 0.812954 0.288044
vt 0.813008 0.280686
vt 0.813103 0.280631
vt 0.799282 0.764607
vt 0.799187 0.764662
vt 0.799242 0.757303
vt 0.799336 0.757249
vt 0.545692 0.293772
vt 0.545598 0.293827
vt 0.799504 0.770390
vt 0.799409 0.770444
vt 0.813081 0.293882
vt 0.812987 0.293937
vt 0.799315 0.770499
vt 0.799220 0.770554
s 0
f 53/1/1 5/2/1 12/3/1 57/4/1
f 4/5/2 3/6/2 7/7/2 8/8/2
f 8/9/3 7/10/3 5/11/3 6/12/3
f 6/13/4 2/14/4 4/15/4 8/16/4
f 2/17/5 1/18/5 3/19/5 4/9/5
f 6/20/6 5/21/6 53/22/6 54/23/6 55/24/6 56/25/6 1/26/6 2/27/6
f 57/4/7 12/3/7 16/28/7 61/29/7
f 41/30/8 38/31/8 51/32/8 47/33/8
f 5/34/9 7/35/9 10/36/9 12/37/9
f 3/38/10 1/39/10 11/40/10 9/41/10
f 15/42/11 64/43/11 63/44/11 62/45/11 61/46/11 16/47/11 14/48/11 13/49/11
f 9/41/12 11/40/12 15/50/12 13/51/12
f 12/37/13 10/36/13 14/52/13 16/53/13
f 20/54/14 22/55/14 34/56/14 32/57/14
f 19/58/15 21/59/15 45/60/15 36/33/15
f 13/61/16 14/62/16 22/63/16 42/64/16 43/65/16 21/66/16
f 14/67/17 10/68/17 27/69/17 29/70/17
f 51/71/18 37/72/18 36/73/18 47/74/18
f 13/61/19 21/66/19 33/75/19 28/76/19
f 19/77/20 17/78/20 30/79/20 31/80/20
f 27/81/8 23/82/8 24/83/8 32/84/8
f 26/85/15 28/86/15 33/87/15 31/88/15
f 25/89/15 26/85/15 31/88/15 30/90/15
f 29/86/8 27/81/8 32/84/8 34/91/8
f 18/92/21 20/54/21 32/57/21 24/93/21
f 3/94/22 9/95/22 26/96/22 25/97/22
f 22/63/23 14/62/23 29/98/23 34/99/23
f 7/100/24 18/101/24 24/102/24 23/103/24
f 17/104/25 3/105/25 25/106/25 30/107/25
f 10/68/26 7/108/26 23/109/26 27/69/26
f 9/95/27 13/110/27 28/111/27 26/96/27
f 21/112/28 19/77/28 31/80/28 33/113/28
f 43/114/8 41/30/8 47/33/8 48/115/8
f 7/100/29 3/105/29 17/104/29 38/116/29 39/117/29 18/101/29
f 41/118/30 43/119/30 42/120/30 40/121/30
f 38/122/18 41/118/18 40/121/18 39/123/18
f 42/124/31 22/125/31 46/126/31 49/127/31
f 35/128/30 50/129/30 49/130/30 46/131/30
f 47/74/30 36/73/30 45/132/30 48/133/30
f 44/134/18 52/135/18 50/129/18 35/128/18
f 21/136/31 43/137/31 48/138/31 45/139/31
f 17/140/15 19/58/15 36/33/15 37/141/15
f 38/142/32 17/143/32 37/144/32 51/145/32
f 22/146/8 20/147/8 35/148/8 46/149/8
f 39/31/15 40/150/15 50/148/15 52/151/15
f 20/147/8 18/152/8 44/153/8 35/148/8
f 40/150/15 42/154/15 49/155/15 50/148/15
f 18/156/32 39/157/32 52/158/32 44/159/32
f 11/160/7 60/161/7 64/162/7 15/163/7
f 60/164/33 59/165/33 63/166/33 64/167/33
f 59/168/7 58/169/7 62/170/7 63/171/7
f 58/172/34 57/173/34 61/174/34 62/175/34
f 1/176/1 56/177/1 60/161/1 11/160/1
f 56/178/35 55/179/35 59/165/35 60/164/35
f 55/180/1 54/181/1 58/169/1 59/168/1
f 54/182/36 53/183/36 57/173/36 58/172/36
